#N canvas 662 49 1425 823 10;
#X msg 409 125 tempo \$1;
#X msg 198 126 resolution \$1;
#X msg 301 146 reset \$1 \$2;
#X obj 301 125 pack f f;
#X floatatom 308 244 5 0 0 1 beat_time - -, f 5;
#X floatatom 277 265 5 0 0 1 phase - -, f 5;
#X floatatom 234 284 5 0 0 1 step - -, f 5;
#X floatatom 345 223 5 0 0 1 tempo - -, f 5;
#X obj 121 106 tgl 15 0 empty empty empty 17 7 0 10 -262144 -1 -1 0
1;
#X obj 234 198 abl_link~ 1 0 4 134;
#X floatatom 409 106 5 0 0 2 tempo - -, f 5;
#X floatatom 346 106 5 0 0 2 quantum - -, f 5;
#X floatatom 301 106 5 0 0 2 beat - -, f 5;
#X floatatom 198 106 5 0 0 2 resolution - -, f 5;
#X msg 121 126 connect \$1;
#X floatatom 414 189 5 0 0 0 - - -, f 5;
#X obj 414 167 r #abl_link_num_peers;
#X obj 147 49 loadbang;
#X obj 231 685 noteout;
#X msg 231 510 36;
#X obj 234 402 t b;
#X obj 231 658 makenote 127 30;
#X msg 232 75 2;
#X msg 304 507 127;
#X obj 234 374 spigot;
#X obj 290 349 tgl 15 0 empty empty empty 17 7 0 10 -262144 -1 -1 1
1;
#X obj 279 429 tgl 15 0 empty empty empty 17 7 0 10 -262144 -1 -1 1
1;
#X msg 87 553 \; pd dsp 1;
#X obj 553 519 print events;
#X obj 553 431 metro 300;
#X msg 578 398 1;
#X msg 553 473 Events are running;
#X obj 367 462 print events;
#X msg 367 416 Audio is running;
#X msg 365 510 50;
#X obj 575 103 shell;
#X obj 372 20 del 1000;
#X obj 46 442 delay 5000;
#X msg 536 71 aconnect 128:1 20;
#X connect 0 0 9 0;
#X connect 1 0 9 0;
#X connect 2 0 9 0;
#X connect 3 0 2 0;
#X connect 6 0 24 0;
#X connect 8 0 14 0;
#X connect 9 0 6 0;
#X connect 9 1 5 0;
#X connect 9 2 4 0;
#X connect 9 3 7 0;
#X connect 10 0 0 0;
#X connect 11 0 3 1;
#X connect 12 0 3 0;
#X connect 13 0 1 0;
#X connect 14 0 9 0;
#X connect 16 0 15 0;
#X connect 17 0 22 0;
#X connect 17 0 25 0;
#X connect 17 0 30 0;
#X connect 17 0 36 0;
#X connect 17 0 37 0;
#X connect 19 0 21 0;
#X connect 20 0 19 0;
#X connect 20 0 23 0;
#X connect 20 0 34 0;
#X connect 20 0 26 0;
#X connect 21 0 18 0;
#X connect 21 1 18 1;
#X connect 22 0 13 0;
#X connect 23 0 21 1;
#X connect 24 0 20 0;
#X connect 25 0 24 1;
#X connect 26 0 33 0;
#X connect 29 0 31 0;
#X connect 30 0 29 0;
#X connect 31 0 28 0;
#X connect 33 0 32 0;
#X connect 34 0 21 2;
#X connect 36 0 38 0;
#X connect 37 0 27 0;
#X connect 38 0 35 0;
